<?xml version="1.0" encoding="UTF-8"?><svg id="Layer_1" xmlns="http://www.w3.org/2000/svg" viewBox="0 0 1000 1000"><path d="M449.314,396.815c-4.184-17.759-18.748-28.887-36.609-29.857-1.217-.066-3.286-.872-3.673-1.803s.336-3.125,1.291-4.314l176.24.479c24.793.067,48.605,4.795,71.862,12.541,60.738,20.23,104.702,67.62,120.615,129.615,9.368,36.495,8.778,74.616-.686,110.488-22.47,85.17-96.502,145.262-184.46,149.753-29.076,1.485-57.972-2.534-86.013-12.243-17.215-5.96-33.29-12.765-49.064-21.879l-46.924-27.113-28.366-15.566c-53.385-26.075-109.597-24.941-165.67-7.377-1.586.497-3.689-2.247-3.622-3.546.08-1.559,1.356-3.512,3.02-4.236l29.453-12.809c15.99-5.867,27.592-18.572,31.674-35.208,2.176-8.868,3.512-17.556,3.512-27.144l.015-296.047c0-18.113-2.936-37.774-17.318-48.376-9.472-6.983-20.545-9.3-32.286-10.227-1.887-.149-1.829-5.544.313-5.966l148.401.007c2.225.246,1.973,5.638.153,5.87-7.895,1.006-15.305,2.196-22.291,5.789-8.584,4.414-15.35,11.146-18.706,20.389-3.428,9.44-5.405,19.297-5.408,29.848l-.094,354.268c53.36,4.966,99.543,25.689,145.919,50.93,37.734,20.612,73.955,38.046,117.961,35.255,84.832-5.381,129.68-86.072,133.565-164.049l-.059-34.518c-3.525-70.783-42.349-135.112-111.622-157.424-17.638-5.239-35.077-8.289-53.632-8.344l-65.082-.193.003,328.909-49.502-25.989-.017-259.835-2.894-20.082Z" fill="#123e7c"/><line y1="1032.125" y2="996.125" fill="none" stroke="#000" stroke-width=".3"/><line x1="1000" y1="1032.125" x2="1000" y2="996.125" fill="none" stroke="#000" stroke-width=".3"/></svg>