<?xml version="1.0" encoding="UTF-8"?><svg id="Layer_1" xmlns="http://www.w3.org/2000/svg" viewBox="0 0 1000 1000"><path d="M532.554,504.676c2.162,5.25,3.009,7.767,5.478,11.449l37.365-103.969,57.114-165.586c4.973-14.418,6.975-28.679,6.327-43.594-.663-15.286-10.689-27.932-25.689-30.924l-23.932-4.774.466-2.529,149.602.508c-13.001,6.505-24.892,4.781-36.226,10.978-15.414,8.428-25.67,21.6-32.421,38.331-43.133,106.888-83.792,213.898-123.273,322.381l-36.865,98.209-117.519-288.653-119.97,320.771-70.653-163.659L80.759,220.627c-3.841-8.938-8.666-16.137-13.555-23.964-11.907-16.132-28.884-26.356-49.179-28.04l-2.646-.993c-.777-.292.807-2.757,1.435-2.986h180.293s2.627.976,2.627.976c6.404,2.382-16.786,3.258-30.883,8.42-14.508,5.313-20.908,18.437-17.081,33.254,3.038,11.764,7.778,22.375,12.828,34.136l131.968,307.335,59.926-156.496,26.653-70.509-43.955-107.405c-5.818-14.217-14.526-26.443-27.015-35.048-9.9-6.821-21.527-9.166-33.443-10.725l-3.328-.435c-.868-.114-.59-2.204-.311-3.517l182.743.027.362,2.759-24.25,4.674c-8.176,1.576-16.517,6.39-20.666,13.658-4.534,7.942-4.567,18.185-.813,27.301l120.083,291.626Z" fill="#123e7c"/><path d="M648.835,363.227l-85.71,387.599c-3.269,14.782-5.235,28.042-4.177,42.806.931,12.994,10.772,23.666,24.717,25.079,39.178,3.968,78.593,3.638,118.056-.83,81.639-9.242,150.595-49.892,183.971-126.135,12.136-27.721,18.771-56.348,20.989-86.728l.463-39.347c-1.985-37.368-9.72-72.968-25.017-107.041-32.595-72.604-97.777-110.494-176.165-116.007-21.712-1.527-42.277-.767-65.473-.372l3.395-9.355c131.88-19.617,285.514,27.991,328.608,164.881,32.701,103.875-.326,215.827-90.476,278.569-30.374,21.14-63.831,35.562-99.978,44.669-39.043,9.836-77.84,14.411-118.649,14.354l-257.162-.359c15.032-8.077,29.725-6.253,43.036-14.297,22.797-13.777,31.959-30.837,40.304-56.589,28.366-87.544,58.519-173.588,90.524-260.139l51.719-139.863,17.026-.894Z" fill="#123e7c"/></svg>